<?xml version="1.0" encoding="utf-8" standalone="no"?>
<!DOCTYPE svg PUBLIC "-//W3C//DTD SVG 1.1//EN"
  "http://www.w3.org/Graphics/SVG/1.1/DTD/svg11.dtd">
<svg xmlns:xlink="http://www.w3.org/1999/xlink" width="404.116875pt" height="289.695228pt" viewBox="0 0 404.116875 289.695228" xmlns="http://www.w3.org/2000/svg" version="1.1">
 <metadata>
  <rdf:RDF xmlns:dc="http://purl.org/dc/elements/1.1/" xmlns:cc="http://creativecommons.org/ns#" xmlns:rdf="http://www.w3.org/1999/02/22-rdf-syntax-ns#">
   <cc:Work>
    <dc:type rdf:resource="http://purl.org/dc/dcmitype/StillImage"/>
    <dc:date>2025-12-14T03:09:06.035735</dc:date>
    <dc:format>image/svg+xml</dc:format>
    <dc:creator>
     <cc:Agent>
      <dc:title>Matplotlib v3.10.6, https://matplotlib.org/</dc:title>
     </cc:Agent>
    </dc:creator>
   </cc:Work>
  </rdf:RDF>
 </metadata>
 <defs>
  <style type="text/css">*{stroke-linejoin: round; stroke-linecap: butt}</style>
 </defs>
 <g id="figure_1">
  <g id="patch_1">
   <path d="M 0 289.695228 
L 404.116875 289.695228 
L 404.116875 0 
L 0 0 
z
" style="fill: #ffffff"/>
  </g>
  <g id="axes_1">
   <g id="patch_2">
    <path d="M 62.116875 232.605697 
L 396.916875 232.605697 
L 396.916875 10.845697 
L 62.116875 10.845697 
z
" style="fill: #ffffff"/>
   </g>
   <g id="matplotlib.axis_1">
    <g id="xtick_1">
     <g id="text_1">
      <!-- A -->
      <g style="fill: #262626" transform="translate(112.273359 257.643119) scale(0.165 -0.165)">
       <defs>
        <path id="DejaVuSans-41" d="M 2188 4044 
L 1331 1722 
L 3047 1722 
L 2188 4044 
z
M 1831 4666 
L 2547 4666 
L 4325 0 
L 3669 0 
L 3244 1197 
L 1141 1197 
L 716 0 
L 50 0 
L 1831 4666 
z
" transform="scale(0.015625)"/>
       </defs>
       <use xlink:href="#DejaVuSans-41"/>
      </g>
     </g>
    </g>
    <g id="xtick_2">
     <g id="text_2">
      <!-- B -->
      <g style="fill: #262626" transform="translate(223.856602 257.643119) scale(0.165 -0.165)">
       <defs>
        <path id="DejaVuSans-42" d="M 1259 2228 
L 1259 519 
L 2272 519 
Q 2781 519 3026 730 
Q 3272 941 3272 1375 
Q 3272 1813 3026 2020 
Q 2781 2228 2272 2228 
L 1259 2228 
z
M 1259 4147 
L 1259 2741 
L 2194 2741 
Q 2656 2741 2882 2914 
Q 3109 3088 3109 3444 
Q 3109 3797 2882 3972 
Q 2656 4147 2194 4147 
L 1259 4147 
z
M 628 4666 
L 2241 4666 
Q 2963 4666 3353 4366 
Q 3744 4066 3744 3513 
Q 3744 3084 3544 2831 
Q 3344 2578 2956 2516 
Q 3422 2416 3680 2098 
Q 3938 1781 3938 1306 
Q 3938 681 3513 340 
Q 3088 0 2303 0 
L 628 0 
L 628 4666 
z
" transform="scale(0.015625)"/>
       </defs>
       <use xlink:href="#DejaVuSans-42"/>
      </g>
     </g>
    </g>
    <g id="xtick_3">
     <g id="text_3">
      <!-- C -->
      <g style="fill: #262626" transform="translate(335.356055 257.643119) scale(0.165 -0.165)">
       <defs>
        <path id="DejaVuSans-43" d="M 4122 4306 
L 4122 3641 
Q 3803 3938 3442 4084 
Q 3081 4231 2675 4231 
Q 1875 4231 1450 3742 
Q 1025 3253 1025 2328 
Q 1025 1406 1450 917 
Q 1875 428 2675 428 
Q 3081 428 3442 575 
Q 3803 722 4122 1019 
L 4122 359 
Q 3791 134 3420 21 
Q 3050 -91 2638 -91 
Q 1578 -91 968 557 
Q 359 1206 359 2328 
Q 359 3453 968 4101 
Q 1578 4750 2638 4750 
Q 3056 4750 3426 4639 
Q 3797 4528 4122 4306 
z
" transform="scale(0.015625)"/>
       </defs>
       <use xlink:href="#DejaVuSans-43"/>
      </g>
     </g>
    </g>
    <g id="text_4">
     <!-- Group -->
     <g style="fill: #262626" transform="translate(202.121719 278.751791) scale(0.18 -0.18)">
      <defs>
       <path id="DejaVuSans-47" d="M 3809 666 
L 3809 1919 
L 2778 1919 
L 2778 2438 
L 4434 2438 
L 4434 434 
Q 4069 175 3628 42 
Q 3188 -91 2688 -91 
Q 1594 -91 976 548 
Q 359 1188 359 2328 
Q 359 3472 976 4111 
Q 1594 4750 2688 4750 
Q 3144 4750 3555 4637 
Q 3966 4525 4313 4306 
L 4313 3634 
Q 3963 3931 3569 4081 
Q 3175 4231 2741 4231 
Q 1884 4231 1454 3753 
Q 1025 3275 1025 2328 
Q 1025 1384 1454 906 
Q 1884 428 2741 428 
Q 3075 428 3337 486 
Q 3600 544 3809 666 
z
" transform="scale(0.015625)"/>
       <path id="DejaVuSans-72" d="M 2631 2963 
Q 2534 3019 2420 3045 
Q 2306 3072 2169 3072 
Q 1681 3072 1420 2755 
Q 1159 2438 1159 1844 
L 1159 0 
L 581 0 
L 581 3500 
L 1159 3500 
L 1159 2956 
Q 1341 3275 1631 3429 
Q 1922 3584 2338 3584 
Q 2397 3584 2469 3576 
Q 2541 3569 2628 3553 
L 2631 2963 
z
" transform="scale(0.015625)"/>
       <path id="DejaVuSans-6f" d="M 1959 3097 
Q 1497 3097 1228 2736 
Q 959 2375 959 1747 
Q 959 1119 1226 758 
Q 1494 397 1959 397 
Q 2419 397 2687 759 
Q 2956 1122 2956 1747 
Q 2956 2369 2687 2733 
Q 2419 3097 1959 3097 
z
M 1959 3584 
Q 2709 3584 3137 3096 
Q 3566 2609 3566 1747 
Q 3566 888 3137 398 
Q 2709 -91 1959 -91 
Q 1206 -91 779 398 
Q 353 888 353 1747 
Q 353 2609 779 3096 
Q 1206 3584 1959 3584 
z
" transform="scale(0.015625)"/>
       <path id="DejaVuSans-75" d="M 544 1381 
L 544 3500 
L 1119 3500 
L 1119 1403 
Q 1119 906 1312 657 
Q 1506 409 1894 409 
Q 2359 409 2629 706 
Q 2900 1003 2900 1516 
L 2900 3500 
L 3475 3500 
L 3475 0 
L 2900 0 
L 2900 538 
Q 2691 219 2414 64 
Q 2138 -91 1772 -91 
Q 1169 -91 856 284 
Q 544 659 544 1381 
z
M 1991 3584 
L 1991 3584 
z
" transform="scale(0.015625)"/>
       <path id="DejaVuSans-70" d="M 1159 525 
L 1159 -1331 
L 581 -1331 
L 581 3500 
L 1159 3500 
L 1159 2969 
Q 1341 3281 1617 3432 
Q 1894 3584 2278 3584 
Q 2916 3584 3314 3078 
Q 3713 2572 3713 1747 
Q 3713 922 3314 415 
Q 2916 -91 2278 -91 
Q 1894 -91 1617 61 
Q 1341 213 1159 525 
z
M 3116 1747 
Q 3116 2381 2855 2742 
Q 2594 3103 2138 3103 
Q 1681 3103 1420 2742 
Q 1159 2381 1159 1747 
Q 1159 1113 1420 752 
Q 1681 391 2138 391 
Q 2594 391 2855 752 
Q 3116 1113 3116 1747 
z
" transform="scale(0.015625)"/>
      </defs>
      <use xlink:href="#DejaVuSans-47"/>
      <use xlink:href="#DejaVuSans-72" transform="translate(77.490234 0)"/>
      <use xlink:href="#DejaVuSans-6f" transform="translate(116.353516 0)"/>
      <use xlink:href="#DejaVuSans-75" transform="translate(177.535156 0)"/>
      <use xlink:href="#DejaVuSans-70" transform="translate(240.914062 0)"/>
     </g>
    </g>
   </g>
   <g id="matplotlib.axis_2">
    <g id="ytick_1">
     <g id="line2d_1">
      <path d="M 62.116875 226.758678 
L 396.916875 226.758678 
" clip-path="url(#p28ce15eeae)" style="fill: none; stroke: #cccccc; stroke-width: 1.5; stroke-linecap: round"/>
     </g>
     <g id="text_5">
      <!-- 5 -->
      <g style="fill: #262626" transform="translate(39.11875 233.027388) scale(0.165 -0.165)">
       <defs>
        <path id="DejaVuSans-35" d="M 691 4666 
L 3169 4666 
L 3169 4134 
L 1269 4134 
L 1269 2991 
Q 1406 3038 1543 3061 
Q 1681 3084 1819 3084 
Q 2600 3084 3056 2656 
Q 3513 2228 3513 1497 
Q 3513 744 3044 326 
Q 2575 -91 1722 -91 
Q 1428 -91 1123 -41 
Q 819 9 494 109 
L 494 744 
Q 775 591 1075 516 
Q 1375 441 1709 441 
Q 2250 441 2565 725 
Q 2881 1009 2881 1497 
Q 2881 1984 2565 2268 
Q 2250 2553 1709 2553 
Q 1456 2553 1204 2497 
Q 953 2441 691 2322 
L 691 4666 
z
" transform="scale(0.015625)"/>
       </defs>
       <use xlink:href="#DejaVuSans-35"/>
      </g>
     </g>
    </g>
    <g id="ytick_2">
     <g id="line2d_2">
      <path d="M 62.116875 173.436186 
L 396.916875 173.436186 
" clip-path="url(#p28ce15eeae)" style="fill: none; stroke: #cccccc; stroke-width: 1.5; stroke-linecap: round"/>
     </g>
     <g id="text_6">
      <!-- 10 -->
      <g style="fill: #262626" transform="translate(28.620625 179.704897) scale(0.165 -0.165)">
       <defs>
        <path id="DejaVuSans-31" d="M 794 531 
L 1825 531 
L 1825 4091 
L 703 3866 
L 703 4441 
L 1819 4666 
L 2450 4666 
L 2450 531 
L 3481 531 
L 3481 0 
L 794 0 
L 794 531 
z
" transform="scale(0.015625)"/>
        <path id="DejaVuSans-30" d="M 2034 4250 
Q 1547 4250 1301 3770 
Q 1056 3291 1056 2328 
Q 1056 1369 1301 889 
Q 1547 409 2034 409 
Q 2525 409 2770 889 
Q 3016 1369 3016 2328 
Q 3016 3291 2770 3770 
Q 2525 4250 2034 4250 
z
M 2034 4750 
Q 2819 4750 3233 4129 
Q 3647 3509 3647 2328 
Q 3647 1150 3233 529 
Q 2819 -91 2034 -91 
Q 1250 -91 836 529 
Q 422 1150 422 2328 
Q 422 3509 836 4129 
Q 1250 4750 2034 4750 
z
" transform="scale(0.015625)"/>
       </defs>
       <use xlink:href="#DejaVuSans-31"/>
       <use xlink:href="#DejaVuSans-30" transform="translate(63.623047 0)"/>
      </g>
     </g>
    </g>
    <g id="ytick_3">
     <g id="line2d_3">
      <path d="M 62.116875 120.113694 
L 396.916875 120.113694 
" clip-path="url(#p28ce15eeae)" style="fill: none; stroke: #cccccc; stroke-width: 1.5; stroke-linecap: round"/>
     </g>
     <g id="text_7">
      <!-- 15 -->
      <g style="fill: #262626" transform="translate(28.620625 126.382405) scale(0.165 -0.165)">
       <use xlink:href="#DejaVuSans-31"/>
       <use xlink:href="#DejaVuSans-35" transform="translate(63.623047 0)"/>
      </g>
     </g>
    </g>
    <g id="ytick_4">
     <g id="line2d_4">
      <path d="M 62.116875 66.791203 
L 396.916875 66.791203 
" clip-path="url(#p28ce15eeae)" style="fill: none; stroke: #cccccc; stroke-width: 1.5; stroke-linecap: round"/>
     </g>
     <g id="text_8">
      <!-- 20 -->
      <g style="fill: #262626" transform="translate(28.620625 73.059914) scale(0.165 -0.165)">
       <defs>
        <path id="DejaVuSans-32" d="M 1228 531 
L 3431 531 
L 3431 0 
L 469 0 
L 469 531 
Q 828 903 1448 1529 
Q 2069 2156 2228 2338 
Q 2531 2678 2651 2914 
Q 2772 3150 2772 3378 
Q 2772 3750 2511 3984 
Q 2250 4219 1831 4219 
Q 1534 4219 1204 4116 
Q 875 4013 500 3803 
L 500 4441 
Q 881 4594 1212 4672 
Q 1544 4750 1819 4750 
Q 2544 4750 2975 4387 
Q 3406 4025 3406 3419 
Q 3406 3131 3298 2873 
Q 3191 2616 2906 2266 
Q 2828 2175 2409 1742 
Q 1991 1309 1228 531 
z
" transform="scale(0.015625)"/>
       </defs>
       <use xlink:href="#DejaVuSans-32"/>
       <use xlink:href="#DejaVuSans-30" transform="translate(63.623047 0)"/>
      </g>
     </g>
    </g>
    <g id="ytick_5">
     <g id="line2d_5">
      <path d="M 62.116875 13.468711 
L 396.916875 13.468711 
" clip-path="url(#p28ce15eeae)" style="fill: none; stroke: #cccccc; stroke-width: 1.5; stroke-linecap: round"/>
     </g>
     <g id="text_9">
      <!-- 25 -->
      <g style="fill: #262626" transform="translate(28.620625 19.737422) scale(0.165 -0.165)">
       <use xlink:href="#DejaVuSans-32"/>
       <use xlink:href="#DejaVuSans-35" transform="translate(63.623047 0)"/>
      </g>
     </g>
    </g>
    <g id="text_10">
     <!-- Value -->
     <g style="fill: #262626" transform="translate(20.877188 146.441947) rotate(-90) scale(0.18 -0.18)">
      <defs>
       <path id="DejaVuSans-56" d="M 1831 0 
L 50 4666 
L 709 4666 
L 2188 738 
L 3669 4666 
L 4325 4666 
L 2547 0 
L 1831 0 
z
" transform="scale(0.015625)"/>
       <path id="DejaVuSans-61" d="M 2194 1759 
Q 1497 1759 1228 1600 
Q 959 1441 959 1056 
Q 959 750 1161 570 
Q 1363 391 1709 391 
Q 2188 391 2477 730 
Q 2766 1069 2766 1631 
L 2766 1759 
L 2194 1759 
z
M 3341 1997 
L 3341 0 
L 2766 0 
L 2766 531 
Q 2569 213 2275 61 
Q 1981 -91 1556 -91 
Q 1019 -91 701 211 
Q 384 513 384 1019 
Q 384 1609 779 1909 
Q 1175 2209 1959 2209 
L 2766 2209 
L 2766 2266 
Q 2766 2663 2505 2880 
Q 2244 3097 1772 3097 
Q 1472 3097 1187 3025 
Q 903 2953 641 2809 
L 641 3341 
Q 956 3463 1253 3523 
Q 1550 3584 1831 3584 
Q 2591 3584 2966 3190 
Q 3341 2797 3341 1997 
z
" transform="scale(0.015625)"/>
       <path id="DejaVuSans-6c" d="M 603 4863 
L 1178 4863 
L 1178 0 
L 603 0 
L 603 4863 
z
" transform="scale(0.015625)"/>
       <path id="DejaVuSans-65" d="M 3597 1894 
L 3597 1613 
L 953 1613 
Q 991 1019 1311 708 
Q 1631 397 2203 397 
Q 2534 397 2845 478 
Q 3156 559 3463 722 
L 3463 178 
Q 3153 47 2828 -22 
Q 2503 -91 2169 -91 
Q 1331 -91 842 396 
Q 353 884 353 1716 
Q 353 2575 817 3079 
Q 1281 3584 2069 3584 
Q 2775 3584 3186 3129 
Q 3597 2675 3597 1894 
z
M 3022 2063 
Q 3016 2534 2758 2815 
Q 2500 3097 2075 3097 
Q 1594 3097 1305 2825 
Q 1016 2553 972 2059 
L 3022 2063 
z
" transform="scale(0.015625)"/>
      </defs>
      <use xlink:href="#DejaVuSans-56"/>
      <use xlink:href="#DejaVuSans-61" transform="translate(60.658203 0)"/>
      <use xlink:href="#DejaVuSans-6c" transform="translate(121.9375 0)"/>
      <use xlink:href="#DejaVuSans-75" transform="translate(149.720703 0)"/>
      <use xlink:href="#DejaVuSans-65" transform="translate(213.099609 0)"/>
     </g>
    </g>
   </g>
   <g id="patch_3">
    <path d="M 117.916875 280.081169 
L 117.916875 280.081169 
L 117.916875 280.081169 
L 117.916875 280.081169 
z
" clip-path="url(#p28ce15eeae)" style="fill: #72b6a1; stroke: #595959; stroke-width: 1.5; stroke-linejoin: miter"/>
   </g>
   <g id="patch_4">
    <path d="M 117.916875 280.081169 
L 117.916875 280.081169 
L 117.916875 280.081169 
L 117.916875 280.081169 
z
" clip-path="url(#p28ce15eeae)" style="fill: #e99675; stroke: #595959; stroke-width: 1.5; stroke-linejoin: miter"/>
   </g>
   <g id="patch_5">
    <path d="M 84.436875 188.078151 
L 117.916875 188.078151 
L 117.916875 152.115965 
L 84.436875 152.115965 
L 84.436875 188.078151 
z
" clip-path="url(#p28ce15eeae)" style="fill: #72b6a1; stroke: #595959; stroke-linejoin: miter"/>
   </g>
   <g id="line2d_6">
    <path d="M 101.176875 188.078151 
L 101.176875 222.525697 
" clip-path="url(#p28ce15eeae)" style="fill: none; stroke: #595959"/>
   </g>
   <g id="line2d_7">
    <path d="M 101.176875 152.115965 
L 101.176875 136.221102 
" clip-path="url(#p28ce15eeae)" style="fill: none; stroke: #595959"/>
   </g>
   <g id="line2d_8">
    <path d="M 92.806875 222.525697 
L 109.546875 222.525697 
" clip-path="url(#p28ce15eeae)" style="fill: none; stroke: #595959; stroke-linecap: round"/>
   </g>
   <g id="line2d_9">
    <path d="M 92.806875 136.221102 
L 109.546875 136.221102 
" clip-path="url(#p28ce15eeae)" style="fill: none; stroke: #595959; stroke-linecap: round"/>
   </g>
   <g id="patch_6">
    <path d="M 196.036875 167.451473 
L 229.516875 167.451473 
L 229.516875 149.065424 
L 196.036875 149.065424 
L 196.036875 167.451473 
z
" clip-path="url(#p28ce15eeae)" style="fill: #72b6a1; stroke: #595959; stroke-linejoin: miter"/>
   </g>
   <g id="line2d_10">
    <path d="M 212.776875 167.451473 
L 212.776875 175.938298 
" clip-path="url(#p28ce15eeae)" style="fill: none; stroke: #595959"/>
   </g>
   <g id="line2d_11">
    <path d="M 212.776875 149.065424 
L 212.776875 136.280132 
" clip-path="url(#p28ce15eeae)" style="fill: none; stroke: #595959"/>
   </g>
   <g id="line2d_12">
    <path d="M 204.406875 175.938298 
L 221.146875 175.938298 
" clip-path="url(#p28ce15eeae)" style="fill: none; stroke: #595959; stroke-linecap: round"/>
   </g>
   <g id="line2d_13">
    <path d="M 204.406875 136.280132 
L 221.146875 136.280132 
" clip-path="url(#p28ce15eeae)" style="fill: none; stroke: #595959; stroke-linecap: round"/>
   </g>
   <g id="patch_7">
    <path d="M 307.636875 192.65957 
L 341.116875 192.65957 
L 341.116875 162.688523 
L 307.636875 162.688523 
L 307.636875 192.65957 
z
" clip-path="url(#p28ce15eeae)" style="fill: #72b6a1; stroke: #595959; stroke-linejoin: miter"/>
   </g>
   <g id="line2d_14">
    <path d="M 324.376875 192.65957 
L 324.376875 214.902183 
" clip-path="url(#p28ce15eeae)" style="fill: none; stroke: #595959"/>
   </g>
   <g id="line2d_15">
    <path d="M 324.376875 162.688523 
L 324.376875 137.484554 
" clip-path="url(#p28ce15eeae)" style="fill: none; stroke: #595959"/>
   </g>
   <g id="line2d_16">
    <path d="M 316.006875 214.902183 
L 332.746875 214.902183 
" clip-path="url(#p28ce15eeae)" style="fill: none; stroke: #595959; stroke-linecap: round"/>
   </g>
   <g id="line2d_17">
    <path d="M 316.006875 137.484554 
L 332.746875 137.484554 
" clip-path="url(#p28ce15eeae)" style="fill: none; stroke: #595959; stroke-linecap: round"/>
   </g>
   <g id="patch_8">
    <path d="M 117.916875 155.758494 
L 151.396875 155.758494 
L 151.396875 112.971082 
L 117.916875 112.971082 
L 117.916875 155.758494 
z
" clip-path="url(#p28ce15eeae)" style="fill: #e99675; stroke: #595959; stroke-linejoin: miter"/>
   </g>
   <g id="line2d_18">
    <path d="M 134.656875 155.758494 
L 134.656875 165.990847 
" clip-path="url(#p28ce15eeae)" style="fill: none; stroke: #595959"/>
   </g>
   <g id="line2d_19">
    <path d="M 134.656875 112.971082 
L 134.656875 94.15448 
" clip-path="url(#p28ce15eeae)" style="fill: none; stroke: #595959"/>
   </g>
   <g id="line2d_20">
    <path d="M 126.286875 165.990847 
L 143.026875 165.990847 
" clip-path="url(#p28ce15eeae)" style="fill: none; stroke: #595959; stroke-linecap: round"/>
   </g>
   <g id="line2d_21">
    <path d="M 126.286875 94.15448 
L 143.026875 94.15448 
" clip-path="url(#p28ce15eeae)" style="fill: none; stroke: #595959; stroke-linecap: round"/>
   </g>
   <g id="patch_9">
    <path d="M 229.516875 97.050175 
L 262.996875 97.050175 
L 262.996875 64.825951 
L 229.516875 64.825951 
L 229.516875 97.050175 
z
" clip-path="url(#p28ce15eeae)" style="fill: #e99675; stroke: #595959; stroke-linejoin: miter"/>
   </g>
   <g id="line2d_22">
    <path d="M 246.256875 97.050175 
L 246.256875 124.673349 
" clip-path="url(#p28ce15eeae)" style="fill: none; stroke: #595959"/>
   </g>
   <g id="line2d_23">
    <path d="M 246.256875 64.825951 
L 246.256875 20.925697 
" clip-path="url(#p28ce15eeae)" style="fill: none; stroke: #595959"/>
   </g>
   <g id="line2d_24">
    <path d="M 237.886875 124.673349 
L 254.626875 124.673349 
" clip-path="url(#p28ce15eeae)" style="fill: none; stroke: #595959; stroke-linecap: round"/>
   </g>
   <g id="line2d_25">
    <path d="M 237.886875 20.925697 
L 254.626875 20.925697 
" clip-path="url(#p28ce15eeae)" style="fill: none; stroke: #595959; stroke-linecap: round"/>
   </g>
   <g id="patch_10">
    <path d="M 341.116875 129.137699 
L 374.596875 129.137699 
L 374.596875 103.314647 
L 341.116875 103.314647 
L 341.116875 129.137699 
z
" clip-path="url(#p28ce15eeae)" style="fill: #e99675; stroke: #595959; stroke-linejoin: miter"/>
   </g>
   <g id="line2d_26">
    <path d="M 357.856875 129.137699 
L 357.856875 148.722802 
" clip-path="url(#p28ce15eeae)" style="fill: none; stroke: #595959"/>
   </g>
   <g id="line2d_27">
    <path d="M 357.856875 103.314647 
L 357.856875 71.932177 
" clip-path="url(#p28ce15eeae)" style="fill: none; stroke: #595959"/>
   </g>
   <g id="line2d_28">
    <path d="M 349.486875 148.722802 
L 366.226875 148.722802 
" clip-path="url(#p28ce15eeae)" style="fill: none; stroke: #595959; stroke-linecap: round"/>
   </g>
   <g id="line2d_29">
    <path d="M 349.486875 71.932177 
L 366.226875 71.932177 
" clip-path="url(#p28ce15eeae)" style="fill: none; stroke: #595959; stroke-linecap: round"/>
   </g>
   <g id="line2d_30">
    <path d="M 84.436875 180.313021 
L 117.916875 180.313021 
" clip-path="url(#p28ce15eeae)" style="fill: none; stroke: #595959"/>
   </g>
   <g id="line2d_31">
    <path d="M 196.036875 160.569544 
L 229.516875 160.569544 
" clip-path="url(#p28ce15eeae)" style="fill: none; stroke: #595959"/>
   </g>
   <g id="line2d_32">
    <path d="M 307.636875 177.368507 
L 341.116875 177.368507 
" clip-path="url(#p28ce15eeae)" style="fill: none; stroke: #595959"/>
   </g>
   <g id="line2d_33">
    <path d="M 117.916875 134.70988 
L 151.396875 134.70988 
" clip-path="url(#p28ce15eeae)" style="fill: none; stroke: #595959"/>
   </g>
   <g id="line2d_34">
    <path d="M 229.516875 78.983263 
L 262.996875 78.983263 
" clip-path="url(#p28ce15eeae)" style="fill: none; stroke: #595959"/>
   </g>
   <g id="line2d_35">
    <path d="M 341.116875 112.15536 
L 374.596875 112.15536 
" clip-path="url(#p28ce15eeae)" style="fill: none; stroke: #595959"/>
   </g>
   <g id="patch_11">
    <path d="M 62.116875 232.605697 
L 62.116875 10.845697 
" style="fill: none; stroke: #cccccc; stroke-width: 1.875; stroke-linejoin: miter; stroke-linecap: square"/>
   </g>
   <g id="patch_12">
    <path d="M 396.916875 232.605697 
L 396.916875 10.845697 
" style="fill: none; stroke: #cccccc; stroke-width: 1.875; stroke-linejoin: miter; stroke-linecap: square"/>
   </g>
   <g id="patch_13">
    <path d="M 62.116875 232.605697 
L 396.916875 232.605697 
" style="fill: none; stroke: #cccccc; stroke-width: 1.875; stroke-linejoin: miter; stroke-linecap: square"/>
   </g>
   <g id="patch_14">
    <path d="M 62.116875 10.845697 
L 396.916875 10.845697 
" style="fill: none; stroke: #cccccc; stroke-width: 1.875; stroke-linejoin: miter; stroke-linecap: square"/>
   </g>
   <g id="PathCollection_1">
    <defs>
     <path id="C0_0_ff6eb3a374" d="M 0 3 
C 0.795609 3 1.55874 2.683901 2.12132 2.12132 
C 2.683901 1.55874 3 0.795609 3 -0 
C 3 -0.795609 2.683901 -1.55874 2.12132 -2.12132 
C 1.55874 -2.683901 0.795609 -3 0 -3 
C -0.795609 -3 -1.55874 -2.683901 -2.12132 -2.12132 
C -2.683901 -1.55874 -3 -0.795609 -3 0 
C -3 0.795609 -2.683901 1.55874 -2.12132 2.12132 
C -1.55874 2.683901 -0.795609 3 0 3 
z
"/>
    </defs>
    <g clip-path="url(#p28ce15eeae)">
     <use xlink:href="#C0_0_ff6eb3a374" x="90.450172" y="138.790529" style="fill: #262626; fill-opacity: 0.55"/>
    </g>
    <g clip-path="url(#p28ce15eeae)">
     <use xlink:href="#C0_0_ff6eb3a374" x="90.259505" y="186.484336" style="fill: #262626; fill-opacity: 0.55"/>
    </g>
    <g clip-path="url(#p28ce15eeae)">
     <use xlink:href="#C0_0_ff6eb3a374" x="99.125729" y="184.701559" style="fill: #262626; fill-opacity: 0.55"/>
    </g>
    <g clip-path="url(#p28ce15eeae)">
     <use xlink:href="#C0_0_ff6eb3a374" x="95.596875" y="196.32153" style="fill: #262626; fill-opacity: 0.55"/>
    </g>
    <g clip-path="url(#p28ce15eeae)">
     <use xlink:href="#C0_0_ff6eb3a374" x="95.596875" y="154.977909" style="fill: #262626; fill-opacity: 0.55"/>
    </g>
    <g clip-path="url(#p28ce15eeae)">
     <use xlink:href="#C0_0_ff6eb3a374" x="95.596875" y="222.525697" style="fill: #262626; fill-opacity: 0.55"/>
    </g>
    <g clip-path="url(#p28ce15eeae)">
     <use xlink:href="#C0_0_ff6eb3a374" x="96.143268" y="136.221102" style="fill: #262626; fill-opacity: 0.55"/>
    </g>
    <g clip-path="url(#p28ce15eeae)">
     <use xlink:href="#C0_0_ff6eb3a374" x="95.596875" y="189.671965" style="fill: #262626; fill-opacity: 0.55"/>
    </g>
    <g clip-path="url(#p28ce15eeae)">
     <use xlink:href="#C0_0_ff6eb3a374" x="95.596875" y="166.631402" style="fill: #262626; fill-opacity: 0.55"/>
    </g>
    <g clip-path="url(#p28ce15eeae)">
     <use xlink:href="#C0_0_ff6eb3a374" x="99.964744" y="178.755006" style="fill: #262626; fill-opacity: 0.55"/>
    </g>
    <g clip-path="url(#p28ce15eeae)">
     <use xlink:href="#C0_0_ff6eb3a374" x="95.596875" y="142.250891" style="fill: #262626; fill-opacity: 0.55"/>
    </g>
    <g clip-path="url(#p28ce15eeae)">
     <use xlink:href="#C0_0_ff6eb3a374" x="92.362245" y="217.37692" style="fill: #262626; fill-opacity: 0.55"/>
    </g>
    <g clip-path="url(#p28ce15eeae)">
     <use xlink:href="#C0_0_ff6eb3a374" x="87.811946" y="180.313021" style="fill: #262626; fill-opacity: 0.55"/>
    </g>
    <g clip-path="url(#p28ce15eeae)">
     <use xlink:href="#C0_0_ff6eb3a374" x="93.958857" y="181.62768" style="fill: #262626; fill-opacity: 0.55"/>
    </g>
    <g clip-path="url(#p28ce15eeae)">
     <use xlink:href="#C0_0_ff6eb3a374" x="93.70772" y="149.254021" style="fill: #262626; fill-opacity: 0.55"/>
    </g>
   </g>
   <g id="PathCollection_2">
    <defs>
     <path id="C1_0_02ef1c6a2b" d="M 0 3 
C 0.795609 3 1.55874 2.683901 2.12132 2.12132 
C 2.683901 1.55874 3 0.795609 3 -0 
C 3 -0.795609 2.683901 -1.55874 2.12132 -2.12132 
C 1.55874 -2.683901 0.795609 -3 0 -3 
C -0.795609 -3 -1.55874 -2.683901 -2.12132 -2.12132 
C -2.683901 -1.55874 -3 -0.795609 -3 0 
C -3 0.795609 -2.683901 1.55874 -2.12132 2.12132 
C -1.55874 2.683901 -0.795609 3 0 3 
z
"/>
    </defs>
    <g clip-path="url(#p28ce15eeae)">
     <use xlink:href="#C1_0_02ef1c6a2b" x="133.936922" y="165.967558" style="fill: #1a1a1a; fill-opacity: 0.55"/>
    </g>
    <g clip-path="url(#p28ce15eeae)">
     <use xlink:href="#C1_0_02ef1c6a2b" x="134.814105" y="136.294774" style="fill: #1a1a1a; fill-opacity: 0.55"/>
    </g>
    <g clip-path="url(#p28ce15eeae)">
     <use xlink:href="#C1_0_02ef1c6a2b" x="143.225237" y="158.863951" style="fill: #1a1a1a; fill-opacity: 0.55"/>
    </g>
    <g clip-path="url(#p28ce15eeae)">
     <use xlink:href="#C1_0_02ef1c6a2b" x="140.236875" y="129.427627" style="fill: #1a1a1a; fill-opacity: 0.55"/>
    </g>
    <g clip-path="url(#p28ce15eeae)">
     <use xlink:href="#C1_0_02ef1c6a2b" x="145.929813" y="112.131897" style="fill: #1a1a1a; fill-opacity: 0.55"/>
    </g>
    <g clip-path="url(#p28ce15eeae)">
     <use xlink:href="#C1_0_02ef1c6a2b" x="140.236875" y="165.990847" style="fill: #1a1a1a; fill-opacity: 0.55"/>
    </g>
    <g clip-path="url(#p28ce15eeae)">
     <use xlink:href="#C1_0_02ef1c6a2b" x="140.236875" y="94.15448" style="fill: #1a1a1a; fill-opacity: 0.55"/>
    </g>
    <g clip-path="url(#p28ce15eeae)">
     <use xlink:href="#C1_0_02ef1c6a2b" x="133.936923" y="101.933154" style="fill: #1a1a1a; fill-opacity: 0.55"/>
    </g>
    <g clip-path="url(#p28ce15eeae)">
     <use xlink:href="#C1_0_02ef1c6a2b" x="140.236875" y="114.701642" style="fill: #1a1a1a; fill-opacity: 0.55"/>
    </g>
    <g clip-path="url(#p28ce15eeae)">
     <use xlink:href="#C1_0_02ef1c6a2b" x="140.236875" y="101.956662" style="fill: #1a1a1a; fill-opacity: 0.55"/>
    </g>
    <g clip-path="url(#p28ce15eeae)">
     <use xlink:href="#C1_0_02ef1c6a2b" x="140.236875" y="152.653036" style="fill: #1a1a1a; fill-opacity: 0.55"/>
    </g>
    <g clip-path="url(#p28ce15eeae)">
     <use xlink:href="#C1_0_02ef1c6a2b" x="144.232368" y="134.70988" style="fill: #1a1a1a; fill-opacity: 0.55"/>
    </g>
    <g clip-path="url(#p28ce15eeae)">
     <use xlink:href="#C1_0_02ef1c6a2b" x="137.233129" y="160.716727" style="fill: #1a1a1a; fill-opacity: 0.55"/>
    </g>
    <g clip-path="url(#p28ce15eeae)">
     <use xlink:href="#C1_0_02ef1c6a2b" x="140.236875" y="139.348868" style="fill: #1a1a1a; fill-opacity: 0.55"/>
    </g>
    <g clip-path="url(#p28ce15eeae)">
     <use xlink:href="#C1_0_02ef1c6a2b" x="134.006786" y="113.810268" style="fill: #1a1a1a; fill-opacity: 0.55"/>
    </g>
   </g>
   <g id="PathCollection_3">
    <defs>
     <path id="C2_0_6b83d140d2" d="M 0 3 
C 0.795609 3 1.55874 2.683901 2.12132 2.12132 
C 2.683901 1.55874 3 0.795609 3 -0 
C 3 -0.795609 2.683901 -1.55874 2.12132 -2.12132 
C 1.55874 -2.683901 0.795609 -3 0 -3 
C -0.795609 -3 -1.55874 -2.683901 -2.12132 -2.12132 
C -2.683901 -1.55874 -3 -0.795609 -3 0 
C -3 0.795609 -2.683901 1.55874 -2.12132 2.12132 
C -1.55874 2.683901 -0.795609 3 0 3 
z
"/>
    </defs>
    <g clip-path="url(#p28ce15eeae)">
     <use xlink:href="#C2_0_6b83d140d2" x="199.039624" y="166.859619" style="fill: #262626; fill-opacity: 0.55"/>
    </g>
    <g clip-path="url(#p28ce15eeae)">
     <use xlink:href="#C2_0_6b83d140d2" x="207.196875" y="160.569544" style="fill: #262626; fill-opacity: 0.55"/>
    </g>
    <g clip-path="url(#p28ce15eeae)">
     <use xlink:href="#C2_0_6b83d140d2" x="192.740426" y="166.763893" style="fill: #262626; fill-opacity: 0.55"/>
    </g>
    <g clip-path="url(#p28ce15eeae)">
     <use xlink:href="#C2_0_6b83d140d2" x="209.787358" y="170.134578" style="fill: #262626; fill-opacity: 0.55"/>
    </g>
    <g clip-path="url(#p28ce15eeae)">
     <use xlink:href="#C2_0_6b83d140d2" x="221.758582" y="166.424196" style="fill: #262626; fill-opacity: 0.55"/>
    </g>
    <g clip-path="url(#p28ce15eeae)">
     <use xlink:href="#C2_0_6b83d140d2" x="207.73759" y="152.377312" style="fill: #262626; fill-opacity: 0.55"/>
    </g>
    <g clip-path="url(#p28ce15eeae)">
     <use xlink:href="#C2_0_6b83d140d2" x="207.196875" y="175.938298" style="fill: #262626; fill-opacity: 0.55"/>
    </g>
    <g clip-path="url(#p28ce15eeae)">
     <use xlink:href="#C2_0_6b83d140d2" x="204.725834" y="147.107338" style="fill: #262626; fill-opacity: 0.55"/>
    </g>
    <g clip-path="url(#p28ce15eeae)">
     <use xlink:href="#C2_0_6b83d140d2" x="207.196875" y="116.705274" style="fill: #262626; fill-opacity: 0.55"/>
    </g>
    <g clip-path="url(#p28ce15eeae)">
     <use xlink:href="#C2_0_6b83d140d2" x="207.196875" y="136.280132" style="fill: #262626; fill-opacity: 0.55"/>
    </g>
    <g clip-path="url(#p28ce15eeae)">
     <use xlink:href="#C2_0_6b83d140d2" x="202.880746" y="156.198849" style="fill: #262626; fill-opacity: 0.55"/>
    </g>
    <g clip-path="url(#p28ce15eeae)">
     <use xlink:href="#C2_0_6b83d140d2" x="203.559411" y="171.039424" style="fill: #262626; fill-opacity: 0.55"/>
    </g>
    <g clip-path="url(#p28ce15eeae)">
     <use xlink:href="#C2_0_6b83d140d2" x="215.692306" y="168.043326" style="fill: #262626; fill-opacity: 0.55"/>
    </g>
    <g clip-path="url(#p28ce15eeae)">
     <use xlink:href="#C2_0_6b83d140d2" x="200.939459" y="116.008831" style="fill: #262626; fill-opacity: 0.55"/>
    </g>
    <g clip-path="url(#p28ce15eeae)">
     <use xlink:href="#C2_0_6b83d140d2" x="213.875127" y="151.023511" style="fill: #262626; fill-opacity: 0.55"/>
    </g>
   </g>
   <g id="PathCollection_4">
    <defs>
     <path id="C3_0_8949dfcca1" d="M 0 3 
C 0.795609 3 1.55874 2.683901 2.12132 2.12132 
C 2.683901 1.55874 3 0.795609 3 -0 
C 3 -0.795609 2.683901 -1.55874 2.12132 -2.12132 
C 1.55874 -2.683901 0.795609 -3 0 -3 
C -0.795609 -3 -1.55874 -2.683901 -2.12132 -2.12132 
C -2.683901 -1.55874 -3 -0.795609 -3 0 
C -3 0.795609 -2.683901 1.55874 -2.12132 2.12132 
C -1.55874 2.683901 -0.795609 3 0 3 
z
"/>
    </defs>
    <g clip-path="url(#p28ce15eeae)">
     <use xlink:href="#C3_0_8949dfcca1" x="251.836875" y="108.499916" style="fill: #1a1a1a; fill-opacity: 0.55"/>
    </g>
    <g clip-path="url(#p28ce15eeae)">
     <use xlink:href="#C3_0_8949dfcca1" x="246.002479" y="82.012146" style="fill: #1a1a1a; fill-opacity: 0.55"/>
    </g>
    <g clip-path="url(#p28ce15eeae)">
     <use xlink:href="#C3_0_8949dfcca1" x="251.836875" y="20.925697" style="fill: #1a1a1a; fill-opacity: 0.55"/>
    </g>
    <g clip-path="url(#p28ce15eeae)">
     <use xlink:href="#C3_0_8949dfcca1" x="251.836875" y="84.275894" style="fill: #1a1a1a; fill-opacity: 0.55"/>
    </g>
    <g clip-path="url(#p28ce15eeae)">
     <use xlink:href="#C3_0_8949dfcca1" x="245.621193" y="68.373715" style="fill: #1a1a1a; fill-opacity: 0.55"/>
    </g>
    <g clip-path="url(#p28ce15eeae)">
     <use xlink:href="#C3_0_8949dfcca1" x="261.085428" y="78.516702" style="fill: #1a1a1a; fill-opacity: 0.55"/>
    </g>
    <g clip-path="url(#p28ce15eeae)">
     <use xlink:href="#C3_0_8949dfcca1" x="251.836875" y="99.389903" style="fill: #1a1a1a; fill-opacity: 0.55"/>
    </g>
    <g clip-path="url(#p28ce15eeae)">
     <use xlink:href="#C3_0_8949dfcca1" x="251.836875" y="124.673349" style="fill: #1a1a1a; fill-opacity: 0.55"/>
    </g>
    <g clip-path="url(#p28ce15eeae)">
     <use xlink:href="#C3_0_8949dfcca1" x="245.537632" y="99.296894" style="fill: #1a1a1a; fill-opacity: 0.55"/>
    </g>
    <g clip-path="url(#p28ce15eeae)">
     <use xlink:href="#C3_0_8949dfcca1" x="255.898693" y="94.803456" style="fill: #1a1a1a; fill-opacity: 0.55"/>
    </g>
    <g clip-path="url(#p28ce15eeae)">
     <use xlink:href="#C3_0_8949dfcca1" x="251.836875" y="69.352073" style="fill: #1a1a1a; fill-opacity: 0.55"/>
    </g>
    <g clip-path="url(#p28ce15eeae)">
     <use xlink:href="#C3_0_8949dfcca1" x="251.836875" y="61.278188" style="fill: #1a1a1a; fill-opacity: 0.55"/>
    </g>
    <g clip-path="url(#p28ce15eeae)">
     <use xlink:href="#C3_0_8949dfcca1" x="257.324471" y="58.330989" style="fill: #1a1a1a; fill-opacity: 0.55"/>
    </g>
    <g clip-path="url(#p28ce15eeae)">
     <use xlink:href="#C3_0_8949dfcca1" x="254.804504" y="78.983263" style="fill: #1a1a1a; fill-opacity: 0.55"/>
    </g>
    <g clip-path="url(#p28ce15eeae)">
     <use xlink:href="#C3_0_8949dfcca1" x="245.730674" y="59.80144" style="fill: #1a1a1a; fill-opacity: 0.55"/>
    </g>
   </g>
   <g id="PathCollection_5">
    <defs>
     <path id="C4_0_6d9680445b" d="M 0 3 
C 0.795609 3 1.55874 2.683901 2.12132 2.12132 
C 2.683901 1.55874 3 0.795609 3 -0 
C 3 -0.795609 2.683901 -1.55874 2.12132 -2.12132 
C 1.55874 -2.683901 0.795609 -3 0 -3 
C -0.795609 -3 -1.55874 -2.683901 -2.12132 -2.12132 
C -2.683901 -1.55874 -3 -0.795609 -3 0 
C -3 0.795609 -2.683901 1.55874 -2.12132 2.12132 
C -1.55874 2.683901 -0.795609 3 0 3 
z
"/>
    </defs>
    <g clip-path="url(#p28ce15eeae)">
     <use xlink:href="#C4_0_6d9680445b" x="318.796875" y="200.191235" style="fill: #262626; fill-opacity: 0.55"/>
    </g>
    <g clip-path="url(#p28ce15eeae)">
     <use xlink:href="#C4_0_6d9680445b" x="321.843858" y="157.378264" style="fill: #262626; fill-opacity: 0.55"/>
    </g>
    <g clip-path="url(#p28ce15eeae)">
     <use xlink:href="#C4_0_6d9680445b" x="325.772143" y="173.160406" style="fill: #262626; fill-opacity: 0.55"/>
    </g>
    <g clip-path="url(#p28ce15eeae)">
     <use xlink:href="#C4_0_6d9680445b" x="320.186763" y="190.458705" style="fill: #262626; fill-opacity: 0.55"/>
    </g>
    <g clip-path="url(#p28ce15eeae)">
     <use xlink:href="#C4_0_6d9680445b" x="319.495909" y="173.681082" style="fill: #262626; fill-opacity: 0.55"/>
    </g>
    <g clip-path="url(#p28ce15eeae)">
     <use xlink:href="#C4_0_6d9680445b" x="316.332528" y="185.712553" style="fill: #262626; fill-opacity: 0.55"/>
    </g>
    <g clip-path="url(#p28ce15eeae)">
     <use xlink:href="#C4_0_6d9680445b" x="316.158992" y="159.964165" style="fill: #262626; fill-opacity: 0.55"/>
    </g>
    <g clip-path="url(#p28ce15eeae)">
     <use xlink:href="#C4_0_6d9680445b" x="318.796875" y="151.684516" style="fill: #262626; fill-opacity: 0.55"/>
    </g>
    <g clip-path="url(#p28ce15eeae)">
     <use xlink:href="#C4_0_6d9680445b" x="318.796875" y="137.484554" style="fill: #262626; fill-opacity: 0.55"/>
    </g>
    <g clip-path="url(#p28ce15eeae)">
     <use xlink:href="#C4_0_6d9680445b" x="312.587788" y="213.88655" style="fill: #262626; fill-opacity: 0.55"/>
    </g>
    <g clip-path="url(#p28ce15eeae)">
     <use xlink:href="#C4_0_6d9680445b" x="318.796875" y="214.902183" style="fill: #262626; fill-opacity: 0.55"/>
    </g>
    <g clip-path="url(#p28ce15eeae)">
     <use xlink:href="#C4_0_6d9680445b" x="315.905547" y="194.860435" style="fill: #262626; fill-opacity: 0.55"/>
    </g>
    <g clip-path="url(#p28ce15eeae)">
     <use xlink:href="#C4_0_6d9680445b" x="319.774602" y="180.687254" style="fill: #262626; fill-opacity: 0.55"/>
    </g>
    <g clip-path="url(#p28ce15eeae)">
     <use xlink:href="#C4_0_6d9680445b" x="318.796875" y="165.41288" style="fill: #262626; fill-opacity: 0.55"/>
    </g>
    <g clip-path="url(#p28ce15eeae)">
     <use xlink:href="#C4_0_6d9680445b" x="314.526081" y="177.368507" style="fill: #262626; fill-opacity: 0.55"/>
    </g>
   </g>
   <g id="PathCollection_6">
    <defs>
     <path id="C5_0_54ac9694e2" d="M 0 3 
C 0.795609 3 1.55874 2.683901 2.12132 2.12132 
C 2.683901 1.55874 3 0.795609 3 -0 
C 3 -0.795609 2.683901 -1.55874 2.12132 -2.12132 
C 1.55874 -2.683901 0.795609 -3 0 -3 
C -0.795609 -3 -1.55874 -2.683901 -2.12132 -2.12132 
C -2.683901 -1.55874 -3 -0.795609 -3 0 
C -3 0.795609 -2.683901 1.55874 -2.12132 2.12132 
C -1.55874 2.683901 -0.795609 3 0 3 
z
"/>
    </defs>
    <g clip-path="url(#p28ce15eeae)">
     <use xlink:href="#C5_0_54ac9694e2" x="363.436875" y="206.37674" style="fill: #1a1a1a; fill-opacity: 0.55"/>
    </g>
    <g clip-path="url(#p28ce15eeae)">
     <use xlink:href="#C5_0_54ac9694e2" x="363.436875" y="133.175743" style="fill: #1a1a1a; fill-opacity: 0.55"/>
    </g>
    <g clip-path="url(#p28ce15eeae)">
     <use xlink:href="#C5_0_54ac9694e2" x="357.872653" y="84.793957" style="fill: #1a1a1a; fill-opacity: 0.55"/>
    </g>
    <g clip-path="url(#p28ce15eeae)">
     <use xlink:href="#C5_0_54ac9694e2" x="374.953361" y="110.298315" style="fill: #1a1a1a; fill-opacity: 0.55"/>
    </g>
    <g clip-path="url(#p28ce15eeae)">
     <use xlink:href="#C5_0_54ac9694e2" x="363.436875" y="87.607826" style="fill: #1a1a1a; fill-opacity: 0.55"/>
    </g>
    <g clip-path="url(#p28ce15eeae)">
     <use xlink:href="#C5_0_54ac9694e2" x="358.379614" y="129.597767" style="fill: #1a1a1a; fill-opacity: 0.55"/>
    </g>
    <g clip-path="url(#p28ce15eeae)">
     <use xlink:href="#C5_0_54ac9694e2" x="367.60618" y="128.677631" style="fill: #1a1a1a; fill-opacity: 0.55"/>
    </g>
    <g clip-path="url(#p28ce15eeae)">
     <use xlink:href="#C5_0_54ac9694e2" x="368.96271" y="112.15536" style="fill: #1a1a1a; fill-opacity: 0.55"/>
    </g>
    <g clip-path="url(#p28ce15eeae)">
     <use xlink:href="#C5_0_54ac9694e2" x="357.307233" y="102.621714" style="fill: #1a1a1a; fill-opacity: 0.55"/>
    </g>
    <g clip-path="url(#p28ce15eeae)">
     <use xlink:href="#C5_0_54ac9694e2" x="351.850821" y="111.654626" style="fill: #1a1a1a; fill-opacity: 0.55"/>
    </g>
    <g clip-path="url(#p28ce15eeae)">
     <use xlink:href="#C5_0_54ac9694e2" x="363.436875" y="115.037024" style="fill: #1a1a1a; fill-opacity: 0.55"/>
    </g>
    <g clip-path="url(#p28ce15eeae)">
     <use xlink:href="#C5_0_54ac9694e2" x="363.436875" y="148.722802" style="fill: #1a1a1a; fill-opacity: 0.55"/>
    </g>
    <g clip-path="url(#p28ce15eeae)">
     <use xlink:href="#C5_0_54ac9694e2" x="363.436875" y="104.007581" style="fill: #1a1a1a; fill-opacity: 0.55"/>
    </g>
    <g clip-path="url(#p28ce15eeae)">
     <use xlink:href="#C5_0_54ac9694e2" x="357.138135" y="114.917043" style="fill: #1a1a1a; fill-opacity: 0.55"/>
    </g>
    <g clip-path="url(#p28ce15eeae)">
     <use xlink:href="#C5_0_54ac9694e2" x="363.436875" y="71.932177" style="fill: #1a1a1a; fill-opacity: 0.55"/>
    </g>
   </g>
   <g id="line2d_36"/>
   <g id="line2d_37"/>
   <g id="legend_1">
    <g id="patch_15">
     <path d="M 73.666875 98.154135 
L 184.758281 98.154135 
Q 188.058281 98.154135 188.058281 94.854135 
L 188.058281 22.395697 
Q 188.058281 19.095697 184.758281 19.095697 
L 73.666875 19.095697 
Q 70.366875 19.095697 70.366875 22.395697 
L 70.366875 94.854135 
Q 70.366875 98.154135 73.666875 98.154135 
z
" style="fill: #ffffff; opacity: 0.8; stroke: #cccccc; stroke-width: 1.5; stroke-linejoin: miter"/>
    </g>
    <g id="text_11">
     <!-- Condition -->
     <g style="fill: #262626" transform="translate(86.264297 39.372885) scale(0.18 -0.18)">
      <defs>
       <path id="DejaVuSans-6e" d="M 3513 2113 
L 3513 0 
L 2938 0 
L 2938 2094 
Q 2938 2591 2744 2837 
Q 2550 3084 2163 3084 
Q 1697 3084 1428 2787 
Q 1159 2491 1159 1978 
L 1159 0 
L 581 0 
L 581 3500 
L 1159 3500 
L 1159 2956 
Q 1366 3272 1645 3428 
Q 1925 3584 2291 3584 
Q 2894 3584 3203 3211 
Q 3513 2838 3513 2113 
z
" transform="scale(0.015625)"/>
       <path id="DejaVuSans-64" d="M 2906 2969 
L 2906 4863 
L 3481 4863 
L 3481 0 
L 2906 0 
L 2906 525 
Q 2725 213 2448 61 
Q 2172 -91 1784 -91 
Q 1150 -91 751 415 
Q 353 922 353 1747 
Q 353 2572 751 3078 
Q 1150 3584 1784 3584 
Q 2172 3584 2448 3432 
Q 2725 3281 2906 2969 
z
M 947 1747 
Q 947 1113 1208 752 
Q 1469 391 1925 391 
Q 2381 391 2643 752 
Q 2906 1113 2906 1747 
Q 2906 2381 2643 2742 
Q 2381 3103 1925 3103 
Q 1469 3103 1208 2742 
Q 947 2381 947 1747 
z
" transform="scale(0.015625)"/>
       <path id="DejaVuSans-69" d="M 603 3500 
L 1178 3500 
L 1178 0 
L 603 0 
L 603 3500 
z
M 603 4863 
L 1178 4863 
L 1178 4134 
L 603 4134 
L 603 4863 
z
" transform="scale(0.015625)"/>
       <path id="DejaVuSans-74" d="M 1172 4494 
L 1172 3500 
L 2356 3500 
L 2356 3053 
L 1172 3053 
L 1172 1153 
Q 1172 725 1289 603 
Q 1406 481 1766 481 
L 2356 481 
L 2356 0 
L 1766 0 
Q 1100 0 847 248 
Q 594 497 594 1153 
L 594 3053 
L 172 3053 
L 172 3500 
L 594 3500 
L 594 4494 
L 1172 4494 
z
" transform="scale(0.015625)"/>
      </defs>
      <use xlink:href="#DejaVuSans-43"/>
      <use xlink:href="#DejaVuSans-6f" transform="translate(69.824219 0)"/>
      <use xlink:href="#DejaVuSans-6e" transform="translate(131.005859 0)"/>
      <use xlink:href="#DejaVuSans-64" transform="translate(194.384766 0)"/>
      <use xlink:href="#DejaVuSans-69" transform="translate(257.861328 0)"/>
      <use xlink:href="#DejaVuSans-74" transform="translate(285.644531 0)"/>
      <use xlink:href="#DejaVuSans-69" transform="translate(324.853516 0)"/>
      <use xlink:href="#DejaVuSans-6f" transform="translate(352.636719 0)"/>
      <use xlink:href="#DejaVuSans-6e" transform="translate(413.818359 0)"/>
     </g>
    </g>
    <g id="patch_16">
     <path d="M 76.966875 63.903744 
L 109.966875 63.903744 
L 109.966875 52.353744 
L 76.966875 52.353744 
z
" style="fill: #72b6a1; stroke: #595959; stroke-width: 1.5; stroke-linejoin: miter"/>
    </g>
    <g id="text_12">
     <!-- Cond 1 -->
     <g style="fill: #262626" transform="translate(123.166875 63.903744) scale(0.165 -0.165)">
      <defs>
       <path id="DejaVuSans-20" transform="scale(0.015625)"/>
      </defs>
      <use xlink:href="#DejaVuSans-43"/>
      <use xlink:href="#DejaVuSans-6f" transform="translate(69.824219 0)"/>
      <use xlink:href="#DejaVuSans-6e" transform="translate(131.005859 0)"/>
      <use xlink:href="#DejaVuSans-64" transform="translate(194.384766 0)"/>
      <use xlink:href="#DejaVuSans-20" transform="translate(257.861328 0)"/>
      <use xlink:href="#DejaVuSans-31" transform="translate(289.648438 0)"/>
     </g>
    </g>
    <g id="patch_17">
     <path d="M 76.966875 88.12265 
L 109.966875 88.12265 
L 109.966875 76.57265 
L 76.966875 76.57265 
z
" style="fill: #e99675; stroke: #595959; stroke-width: 1.5; stroke-linejoin: miter"/>
    </g>
    <g id="text_13">
     <!-- Cond 2 -->
     <g style="fill: #262626" transform="translate(123.166875 88.12265) scale(0.165 -0.165)">
      <use xlink:href="#DejaVuSans-43"/>
      <use xlink:href="#DejaVuSans-6f" transform="translate(69.824219 0)"/>
      <use xlink:href="#DejaVuSans-6e" transform="translate(131.005859 0)"/>
      <use xlink:href="#DejaVuSans-64" transform="translate(194.384766 0)"/>
      <use xlink:href="#DejaVuSans-20" transform="translate(257.861328 0)"/>
      <use xlink:href="#DejaVuSans-32" transform="translate(289.648438 0)"/>
     </g>
    </g>
   </g>
  </g>
 </g>
 <defs>
  <clipPath id="p28ce15eeae">
   <rect x="62.116875" y="10.845697" width="334.8" height="221.76"/>
  </clipPath>
 </defs>
</svg>
